<svg width="24" height="28" viewBox="0 0 24 28" fill="none" xmlns="http://www.w3.org/2000/svg">
<path d="M15.4772 24.2542C15.8727 24.5762 15.9354 25.1618 15.6172 25.562C15.382 25.858 15.1103 26.1229 14.8223 26.34C13.8521 27.1013 12.6186 27.4465 11.3937 27.3006C10.1677 27.1545 9.0493 26.5283 8.28608 25.5586C7.96982 25.1568 8.03524 24.5715 8.43219 24.2514C8.82915 23.9313 9.40731 23.9975 9.72357 24.3993C10.1839 24.9841 10.8622 25.364 11.6085 25.4529C12.3558 25.5419 13.1076 25.3315 13.71 24.859C13.8877 24.725 14.0473 24.5693 14.1852 24.3958C14.5033 23.9956 15.0818 23.9321 15.4772 24.2542ZM2.86946 9.99966L2.88588 9.20521C2.89761 8.86541 2.91577 8.54997 2.94242 8.24128C3.34202 3.92608 7.46082 0.666668 11.953 0.666668H12.0481C16.5379 0.666668 20.6579 3.92381 21.0711 8.24715C21.0948 8.52198 21.105 8.76611 21.1081 9.10942L21.1093 10.1598C21.1103 10.2554 21.1119 10.3396 21.1143 10.418L21.1267 10.6797L21.1861 10.9292C21.3737 11.624 21.7034 12.2737 22.1549 12.8376L22.3559 13.0739L22.4381 13.1796C22.9797 13.9889 23.2891 14.9307 23.3333 15.945L23.332 16.4827C23.2942 17.684 22.8532 18.8441 22.0451 19.8109C20.9748 20.9468 19.5245 21.6524 17.9831 21.7943C14.0026 22.2265 9.98662 22.2265 6.01724 21.7954C4.46524 21.6461 3.01921 20.9426 1.90213 19.7631C1.07838 18.7588 0.640512 17.4944 0.667831 16.2166L0.668959 15.8989C0.71655 14.9274 1.02401 13.9865 1.55911 13.1736L1.64867 13.0584C2.27362 12.3732 2.70088 11.5347 2.88627 10.6307L2.86621 10.7119L2.86946 9.99966ZM12.0481 2.52713H11.953C8.35531 2.52713 5.07734 5.12116 4.77286 8.40904C4.75727 8.58971 4.74484 8.7761 4.73513 8.97226L4.71372 9.59412L4.70502 10.8198L4.68583 11.0089C4.43254 12.244 3.84967 13.3879 2.99902 14.3205L3.06471 14.2443L2.94722 14.4388C2.72714 14.8353 2.58515 15.266 2.52905 15.691L2.50576 15.945L2.50555 16.2366C2.48754 17.0857 2.77445 17.9142 3.27155 18.5241C4.03838 19.3313 5.07572 19.836 6.2022 19.9444C10.0523 20.3625 13.9369 20.3625 17.8018 19.943C18.9161 19.8403 19.9527 19.336 20.6778 18.5689C21.2266 17.9107 21.5166 17.0795 21.4954 16.2048L21.4964 15.9869C21.4683 15.3581 21.268 14.7483 20.9164 14.2229L20.9367 14.2567L20.7529 14.0411C20.1191 13.2588 19.6586 12.3513 19.4022 11.3786L19.3157 11.0109L19.2985 10.8873C19.2856 10.7068 19.278 10.5464 19.274 10.3535L19.2704 9.14733C19.2679 8.84059 19.2596 8.63411 19.2409 8.41769C18.9258 5.121 15.6448 2.52713 12.0481 2.52713Z" fill="#43454C"/>
</svg>
