<svg width="22" height="28" viewBox="0 0 22 28" fill="none" xmlns="http://www.w3.org/2000/svg">
<path d="M8.1068 17.7612C10.0318 17.5914 11.968 17.5914 13.893 17.7612L14.5076 17.8132C15.3483 17.8961 16.1831 18.0258 17.0045 18.2012C19.0983 18.6325 20.6188 19.3977 21.2917 20.817C21.7917 21.8729 21.7917 23.0988 21.2915 24.1552C20.6168 25.5781 19.0768 26.3497 17.0202 26.7554L16.397 26.8848C15.5642 27.0446 14.7243 27.1537 13.8901 27.2108C12.3246 27.3441 10.7519 27.3684 9.23474 27.2849C9.0675 27.2849 8.95526 27.2844 8.85636 27.2821L8.66402 27.2749C8.43017 27.2629 8.21592 27.2384 8.12602 27.2121C7.07052 27.1403 6.02205 26.9876 5.01623 26.7606L4.67506 26.6894C2.77047 26.2662 1.35999 25.5028 0.707557 24.1537C0.460466 23.6302 0.332659 23.058 0.3334 22.4836C0.331253 21.9051 0.460104 21.3336 0.716386 20.7998C1.39587 19.4351 2.9923 18.6138 4.9878 18.2028C6.02168 17.9812 7.06984 17.8332 8.1068 17.7612ZM13.7248 19.684C11.9117 19.5241 10.0881 19.5241 8.25731 19.6854C7.29289 19.7525 6.33438 19.8879 5.38147 20.0921C3.90566 20.3961 2.7773 20.9765 2.44164 21.6505C2.31804 21.908 2.25437 22.1904 2.25542 22.4813C2.25506 22.7737 2.31959 23.0626 2.44038 23.3186C2.7856 24.0324 3.85034 24.5659 5.4104 24.8716L5.88042 24.9711C6.66762 25.1272 7.47836 25.2348 8.37936 25.3028C8.49315 25.3256 8.61593 25.3397 8.76162 25.3471L9.28642 25.3561C10.7667 25.4362 12.2506 25.4132 13.7435 25.2863C14.7056 25.2203 15.6614 25.0816 16.6261 24.8664L16.926 24.8028C18.2961 24.4922 19.244 23.9838 19.556 23.3258C19.8076 22.7944 19.8076 22.1774 19.5562 21.6464C19.2223 20.9422 18.1669 20.4111 16.6116 20.0906C15.6655 19.8887 14.7066 19.7533 13.7417 19.6853L13.7248 19.684ZM11.0058 0.666672C14.9178 0.666672 18.0891 3.85152 18.0891 7.78024C18.0891 11.709 14.9178 14.8938 11.0058 14.8938C7.09373 14.8938 3.9224 11.709 3.9224 7.78024C3.9224 3.85152 7.09373 0.666672 11.0058 0.666672ZM11.0058 2.5969C8.15524 2.5969 5.84443 4.91756 5.84443 7.78024C5.84443 10.6429 8.15524 12.9636 11.0058 12.9636C13.8563 12.9636 16.1671 10.6429 16.1671 7.78024C16.1671 4.91756 13.8563 2.5969 11.0058 2.5969Z" fill="#43454C"/>
</svg>
