<svg width="1440" height="228" viewBox="0 0 1440 228" fill="none" xmlns="http://www.w3.org/2000/svg">
<path fill-rule="evenodd" clip-rule="evenodd" d="M0 124L24 98.1667C48 72.3333 96 20.6667 144 41.3333C192 62 240 155 288 180.833C336 206.667 384 165.333 432 144.667C480 124 528 124 576 139.5C624 155 672 186 720 175.667C768 165.333 816 113.667 864 93C912 72.3333 960 82.6667 1008 113.667C1056 144.667 1104 196.333 1152 211.833C1200 227.333 1248 206.667 1296 165.333C1344 124 1392 62 1416 31L1440 0V279H1416C1392 279 1344 279 1296 279C1248 279 1200 279 1152 279C1104 279 1056 279 1008 279C960 279 912 279 864 279C816 279 768 279 720 279C672 279 624 279 576 279C528 279 480 279 432 279C384 279 336 279 288 279C240 279 192 279 144 279C96 279 48 279 24 279H0V124Z" fill="url(#paint0_linear)"/>
<defs>
<linearGradient id="paint0_linear" x1="720" y1="0" x2="720" y2="279" gradientUnits="userSpaceOnUse">
<stop stop-color="#B73030"/>
<stop offset="1" stop-color="#792020"/>
</linearGradient>
</defs>
</svg>
