<svg width="19" height="19" viewBox="0 0 19 19" fill="none" xmlns="http://www.w3.org/2000/svg">
<path d="M11.5415 9.49189L18.5787 2.45485C18.8406 2.18364 18.9856 1.82039 18.9823 1.44335C18.979 1.06631 18.8278 0.705642 18.5612 0.439023C18.2946 0.172405 17.9339 0.0211711 17.5569 0.0178947C17.1799 0.0146183 16.8167 0.159561 16.5455 0.421506L9.50829 7.45854L2.47168 0.421506C2.33823 0.287884 2.17976 0.181879 2.00532 0.109553C1.83089 0.0372273 1.6439 0 1.45506 0C1.26623 0 1.07924 0.0372273 0.904804 0.109553C0.730366 0.181879 0.571894 0.287884 0.438453 0.421506C0.304839 0.554955 0.19884 0.713436 0.126519 0.887885C0.0541972 1.06233 0.0169721 1.24933 0.0169721 1.43818C0.0169721 1.62703 0.0541972 1.81402 0.126519 1.98847C0.19884 2.16292 0.304839 2.3214 0.438453 2.45485L7.47507 9.49189L0.422349 16.5456C0.220831 16.7465 0.0835126 17.0028 0.0278032 17.2818C-0.0279061 17.5609 0.000503159 17.8502 0.109429 18.1131C0.218355 18.3761 0.402891 18.6007 0.63964 18.7586C0.876389 18.9165 1.15469 19.0005 1.43925 19C1.80736 19 2.17546 18.8596 2.45615 18.5789L9.50887 11.5252L16.5455 18.5623C16.6789 18.696 16.8374 18.802 17.0119 18.8742C17.1864 18.9465 17.3735 18.9836 17.5624 18.9833C17.8467 18.9833 18.1246 18.8989 18.361 18.7409C18.5974 18.5829 18.7817 18.3584 18.8905 18.0958C18.9993 17.8331 19.0278 17.544 18.9724 17.2652C18.9171 16.9863 18.7802 16.7301 18.5793 16.5289L11.5415 9.49189Z" fill="#EF4444"/>
</svg>
